<?xml version="1.0" standalone="no"?>
<!DOCTYPE svg PUBLIC "-//W3C//DTD SVG 20010904//EN"
 "http://www.w3.org/TR/2001/REC-SVG-20010904/DTD/svg10.dtd">
<svg version="1.0" xmlns="http://www.w3.org/2000/svg"
 width="400.000000pt" height="400.000000pt" viewBox="0 0 400.000000 400.000000"
 preserveAspectRatio="xMidYMid meet">
<metadata>
Created by potrace 1.14, written by Peter Selinger 2001-2017
</metadata>
<g transform="translate(0.000000,400.000000) scale(0.100000,-0.100000)"
fill="#000000" stroke="none">
<path d="M1615 3022 c-22 -10 -55 -34 -73 -53 -52 -53 -64 -111 -64 -322 0
-100 3 -196 6 -213 25 -133 131 -205 279 -190 97 9 172 73 198 168 16 61 12
415 -6 474 -15 53 -59 105 -109 131 -49 26 -182 28 -231 5z m174 -107 c56 -28
63 -64 59 -288 -3 -195 -4 -203 -27 -234 -48 -64 -166 -53 -203 19 -17 33 -19
59 -19 224 0 111 5 201 12 221 21 63 111 93 178 58z"/>
<path d="M805 3020 l-30 -5 0 -380 0 -380 48 -3 47 -3 0 63 c0 35 1 152 1 261
0 120 3 197 9 197 6 0 10 -4 10 -9 0 -5 29 -70 64 -144 l64 -135 55 0 55 1 33
71 c18 39 50 107 71 151 l38 80 0 -266 0 -265 50 -3 50 -2 0 385 c0 428 6 396
-69 387 -33 -3 -35 -7 -115 -175 -45 -94 -89 -187 -97 -206 l-16 -35 -38 80
c-21 44 -58 123 -82 175 -25 52 -51 109 -59 126 -16 34 -40 43 -89 34z"/>
<path d="M2120 3022 c-6 -2 -10 -141 -10 -389 l0 -385 144 5 c121 4 150 8 186
27 92 47 131 136 108 245 -10 44 -56 107 -88 117 -11 3 -8 11 13 33 95 103 52
292 -76 334 -30 10 -255 20 -277 13z m227 -112 c73 -26 78 -166 7 -199 -14 -6
-52 -11 -84 -11 l-60 0 0 110 0 110 54 0 c29 0 67 -5 83 -10z m24 -330 c77
-32 87 -157 16 -200 -24 -15 -50 -20 -104 -20 l-73 0 0 114 c0 111 1 115 23
118 39 6 109 0 138 -12z"/>
<path d="M2791 2961 c-11 -36 -56 -203 -101 -371 -44 -168 -83 -313 -86 -322
-5 -16 2 -18 45 -18 l50 0 21 69 c11 37 20 72 20 77 0 6 51 10 115 10 l115 0
10 -40 c6 -23 15 -58 21 -78 l10 -38 60 0 c53 0 60 2 55 18 -7 26 -77 295 -81
312 -14 63 -116 434 -121 439 -3 3 -30 6 -60 7 l-54 1 -19 -66z m84 -141 c3
-19 19 -92 35 -161 17 -70 30 -132 30 -138 0 -7 -29 -11 -86 -11 -73 0 -85 2
-80 15 3 8 24 87 48 175 23 87 43 158 45 157 1 -2 5 -18 8 -37z"/>
<path d="M3300 2616 c0 -2 19 -16 43 -30 55 -33 125 -99 171 -159 39 -53 44
-67 21 -67 -21 0 -65 -70 -72 -114 -12 -75 46 -162 120 -180 26 -6 28 -10 22
-39 -78 -389 -514 -778 -1153 -1026 -57 -22 -129 -48 -160 -57 -31 -10 -61
-19 -67 -20 -135 -41 -330 -85 -440 -100 -27 -3 -59 -8 -70 -10 -132 -25 -551
-26 -680 0 -11 2 -40 7 -65 11 -126 19 -289 83 -402 158 -241 160 -325 425
-217 687 21 50 104 198 118 210 3 3 22 25 42 50 54 66 96 110 166 173 65 59
64 65 -12 59 -36 -3 -51 -13 -121 -81 -101 -98 -133 -134 -188 -215 -163 -239
-190 -497 -69 -681 101 -154 263 -258 528 -338 82 -25 122 -35 213 -52 15 -3
33 -8 39 -10 35 -12 181 -20 373 -20 257 0 341 8 560 51 675 134 1284 482
1557 889 49 74 110 215 118 275 6 48 12 82 15 90 1 3 2 8 1 13 0 4 6 7 14 7 8
0 15 5 15 10 0 6 10 15 23 20 12 5 16 9 8 9 -11 1 -10 6 3 26 51 77 -14 207
-111 222 -29 5 -52 21 -103 73 -71 73 -240 189 -240 166z"/>
<path d="M903 2049 c-80 -14 -125 -69 -125 -150 0 -74 31 -108 150 -164 112
-54 139 -76 148 -119 17 -93 -88 -155 -191 -112 -35 15 -65 59 -65 96 0 15 -6
20 -25 20 -20 0 -25 -5 -25 -25 0 -39 35 -97 73 -123 45 -30 139 -39 188 -18
75 32 113 110 90 186 -16 52 -55 87 -148 130 -43 19 -90 43 -105 53 -35 24
-49 66 -37 111 13 47 51 70 117 70 43 -1 57 -5 81 -28 16 -15 31 -40 34 -56 6
-29 26 -43 45 -31 8 5 9 17 1 46 -24 87 -104 131 -206 114z"/>
<path d="M1412 2049 c-43 -8 -102 -42 -102 -60 0 -5 -4 -9 -9 -9 -5 0 -9 6 -8
13 1 35 -5 47 -23 47 -20 0 -20 -7 -20 -395 l0 -395 25 0 c24 0 25 0 24 98 -1
123 1 170 7 155 11 -25 77 -56 128 -60 68 -4 122 26 156 87 23 42 24 55 26
203 2 177 -5 210 -52 266 -39 45 -88 61 -152 50z m85 -57 c12 -7 32 -27 45
-44 21 -31 23 -44 25 -180 3 -201 -12 -245 -91 -272 -68 -24 -129 3 -161 71
-25 52 -24 304 2 359 33 71 115 101 180 66z"/>
<path d="M1890 2050 c-72 -12 -140 -80 -140 -139 0 -33 47 -25 54 9 6 33 52
80 80 81 119 9 161 -30 165 -151 l2 -56 -94 -2 c-131 -3 -188 -31 -216 -105
-28 -73 2 -181 61 -217 71 -43 176 -35 224 17 l24 26 0 -25 c0 -27 27 -45 42
-30 6 6 8 112 6 243 -3 213 -5 237 -23 268 -38 64 -106 94 -185 81z m160 -375
c0 -43 -6 -90 -14 -110 -39 -93 -197 -101 -239 -12 -23 49 -21 98 6 138 28 42
68 56 169 58 l78 2 0 -76z"/>
<path d="M2367 2047 c-50 -12 -103 -66 -117 -119 -7 -25 -10 -103 -8 -202 2
-129 7 -167 21 -193 73 -135 282 -115 330 31 19 59 16 81 -10 82 -13 1 -24 -1
-24 -5 -1 -3 -3 -15 -4 -26 -9 -80 -73 -131 -152 -122 -93 10 -113 55 -113
259 0 169 11 210 63 236 50 25 118 19 152 -12 27 -25 59 -109 47 -121 -4 -4 7
-5 23 -3 28 3 30 6 26 38 -11 117 -114 186 -234 157z"/>
<path d="M2869 2049 c-77 -12 -129 -60 -144 -134 -7 -34 -7 -298 -1 -332 11
-56 75 -131 114 -134 158 -14 224 25 256 154 6 25 4 27 -24 27 -17 0 -29 -4
-26 -8 2 -4 -4 -27 -14 -50 -23 -51 -70 -82 -125 -82 -85 0 -130 51 -134 151
-1 35 -4 66 -7 71 -6 9 -4 9 182 10 l141 0 0 87 c0 48 -6 103 -14 126 -31 88
-104 129 -204 114z m108 -65 c39 -25 54 -59 59 -138 l5 -76 -134 0 c-73 0
-136 2 -138 4 -3 3 -2 38 1 79 5 53 13 83 28 104 35 49 123 62 179 27z"/>
</g>
</svg>
